<svg viewBox="0 0 888 200" xmlns="http://www.w3.org/2000/svg">
  <path d="m316.608 144.967h254.782v33.795h-254.782z" fill="none" />
  <path
    d="m319.038 144.967h1.35l21.959 31.004h.09v-31.004h.9v32.129h-1.35l-21.959-31.004h-.09v31.004h-.9zm38.43 8.461c6.75 0 10.395 5.805 10.395 12.104 0 6.346-3.645 12.105-10.44 12.105-6.75 0-10.395-5.76-10.395-12.105 0-6.3 3.645-12.104 10.44-12.104zm0 23.308c6.165 0 9.495-5.355 9.495-11.205 0-5.76-3.33-11.205-9.495-11.205-6.255 0-9.54 5.445-9.54 11.205 0 5.85 3.285 11.205 9.54 11.205zm15.03.36h-.9v-23.129h.9v5.715h.09c.855-3.42 3.555-6.434 9.09-6.254v.898c-6.345-.314-9.18 4.637-9.18 9.676zm28.753-32.129h.9v32.129h-.9v-6.479h-.09c-1.17 4.049-4.545 7.02-9.27 7.02-6.12 0-9.855-5.086-9.855-12.061 0-6.479 3.465-12.148 9.855-12.148 4.905 0 8.189 2.834 9.27 7.02h.09zm-9.359 9.359c-6.345 0-8.955 5.896-8.955 11.25 0 5.939 2.97 11.16 8.955 11.16 5.939 0 9.359-5.176 9.359-11.16 0-7.154-3.734-11.25-9.359-11.25z"
    fill="#88c0d0"
  />
  <g fill="#2e3440">
    <path
      d="m430.096 144.967h3.42l12.599 32.129h-3.285l-3.915-9.988h-14.625l-3.87 9.988h-3.285zm-4.86 19.529h12.645l-6.21-16.469zm23.311-19.529h2.834v32.129h-2.834zm8.01 16.019c.27-5.443 4.094-7.783 9.404-7.783 4.096 0 8.549 1.26 8.549 7.469v12.33c0 1.08.541 1.709 1.666 1.709.314 0 .674-.09.9-.18v2.385c-.631.135-1.08.18-1.846.18-2.879 0-3.33-1.619-3.33-4.049h-.09c-1.98 3.014-4.004 4.725-8.459 4.725-4.275 0-7.785-2.115-7.785-6.795 0-6.525 6.346-6.75 12.465-7.471 2.34-.27 3.645-.584 3.645-3.148 0-3.826-2.744-4.77-6.074-4.77-3.51 0-6.121 1.619-6.211 5.398zm15.119 3.42h-.09c-.359.676-1.619.9-2.385 1.035-4.814.855-10.801.811-10.801 5.355 0 2.834 2.521 4.59 5.176 4.59 4.32 0 8.145-2.746 8.1-7.291zm24.885-3.24c-.766-3.465-2.881-5.578-6.57-5.578-5.445 0-8.145 4.949-8.145 9.898s2.699 9.9 8.145 9.9c3.51 0 6.391-2.746 6.75-6.615h2.834c-.764 5.58-4.408 9-9.584 9-7.109 0-10.979-5.625-10.979-12.285s3.869-12.283 10.979-12.283c4.949 0 8.775 2.654 9.404 7.963zm6.974-7.289h2.609v5.445h.09c1.441-3.734 4.59-5.939 8.775-5.76v2.834c-5.129-.27-8.639 3.51-8.639 8.326v12.373h-2.836v-23.218zm14.221-8.91h2.834v4.545h-2.834zm0 8.91h2.834v23.219h-2.834zm12.779 0h4.725v2.385h-4.725v15.66c0 1.844.27 2.924 2.295 3.059.811 0 1.619-.045 2.43-.135v2.43c-.855 0-1.664.09-2.52.09-3.779 0-5.084-1.26-5.039-5.219v-15.885h-4.051v-2.385h4.051v-6.975h2.834zm13.32 0h4.725v2.385h-4.725v15.66c0 1.844.27 2.924 2.293 3.059.811 0 1.621-.045 2.432-.135v2.43c-.855 0-1.666.09-2.521.09-3.779 0-5.084-1.26-5.039-5.219v-15.885h-4.049v-2.385h4.049v-6.975h2.836v6.975zm6.209 0h3.014l7.65 19.799 7.154-19.799h2.836l-10.08 26.773c-1.619 3.916-2.564 5.041-6.119 5.041-1.125-.045-1.711-.045-2.16-.225v-2.387c.674.137 1.305.227 1.936.227 2.52 0 3.104-1.486 4.049-3.646l.99-2.654z"
    />
    <path d="m466.559 126.967-43.39-55.546v-15.412l48.089 62.173h25.844v-87.546h-43.464l-9.397-9.398h62.257v105.729z" />
    <path d="m421.44 21.238 43.392 55.541v15.41l-48.091-62.168h-25.842v87.545h43.463l9.399 9.401h-62.26v-105.729z" />
  </g>
</svg>
